<svg xmlns="http://www.w3.org/2000/svg" viewBox="0 0 1440 320" preserveAspectRatio="none">
  <path class="wave-layer back" fill="#ffd6e0" fill-opacity="1"
        d="M0,256L48,234.7C96,213,192,171,288,144C384,117,480,107,576,122.7C672,139,768,181,864,181.3C960,181,1056,139,1152,144C1248,149,1344,203,1392,229.3L1440,256L1440,320L1392,320C1344,320,1248,320,1152,320C1056,320,960,320,864,320C768,320,672,320,576,320C480,320,384,320,288,320C192,320,96,320,48,320L0,320Z" />
  <path class="wave-layer mid" fill="#ff99b7" fill-opacity="0.9"
        d="M0,192L60,176C120,160,240,128,360,144C480,160,600,224,720,229.3C840,235,960,181,1080,160C1200,139,1320,149,1380,154.7L1440,160L1440,320L1380,320C1320,320,1200,320,1080,320C960,320,840,320,720,320C600,320,480,320,360,320C240,320,120,320,60,320L0,320Z" />
  <path class="wave-layer front" fill="#ff5573" fill-opacity="1"
        d="M0,224L48,202.7C96,181,192,139,288,149.3C384,160,480,224,576,224C672,224,768,160,864,133.3C960,107,1056,117,1152,138.7C1248,160,1344,192,1392,208L1440,224L1440,320L1392,320C1344,320,1248,320,1152,320C1056,320,960,320,864,320C768,320,672,320,576,320C480,320,384,320,288,320C192,320,96,320,48,320L0,320Z" />
</svg>
